%TF.GenerationSoftware,KiCad,Pcbnew,6.0.11+dfsg-1*%
%TF.CreationDate,2023-09-10T04:50:12+01:00*%
%TF.ProjectId,latch,6c617463-682e-46b6-9963-61645f706362,rev?*%
%TF.SameCoordinates,Original*%
%TF.FileFunction,Legend,Top*%
%TF.FilePolarity,Positive*%
%FSLAX46Y46*%
G04 Gerber Fmt 4.6, Leading zero omitted, Abs format (unit mm)*
G04 Created by KiCad (PCBNEW 6.0.11+dfsg-1) date 2023-09-10 04:50:12*
%MOMM*%
%LPD*%
G01*
G04 APERTURE LIST*
%ADD10C,0.150000*%
%ADD11C,0.120000*%
G04 APERTURE END LIST*
D10*
%TO.C,R2*%
X120483333Y-94432380D02*
X120150000Y-93956190D01*
X119911904Y-94432380D02*
X119911904Y-93432380D01*
X120292857Y-93432380D01*
X120388095Y-93480000D01*
X120435714Y-93527619D01*
X120483333Y-93622857D01*
X120483333Y-93765714D01*
X120435714Y-93860952D01*
X120388095Y-93908571D01*
X120292857Y-93956190D01*
X119911904Y-93956190D01*
X120864285Y-93527619D02*
X120911904Y-93480000D01*
X121007142Y-93432380D01*
X121245238Y-93432380D01*
X121340476Y-93480000D01*
X121388095Y-93527619D01*
X121435714Y-93622857D01*
X121435714Y-93718095D01*
X121388095Y-93860952D01*
X120816666Y-94432380D01*
X121435714Y-94432380D01*
%TO.C,D2*%
X131341904Y-88082380D02*
X131341904Y-87082380D01*
X131580000Y-87082380D01*
X131722857Y-87130000D01*
X131818095Y-87225238D01*
X131865714Y-87320476D01*
X131913333Y-87510952D01*
X131913333Y-87653809D01*
X131865714Y-87844285D01*
X131818095Y-87939523D01*
X131722857Y-88034761D01*
X131580000Y-88082380D01*
X131341904Y-88082380D01*
X132294285Y-87177619D02*
X132341904Y-87130000D01*
X132437142Y-87082380D01*
X132675238Y-87082380D01*
X132770476Y-87130000D01*
X132818095Y-87177619D01*
X132865714Y-87272857D01*
X132865714Y-87368095D01*
X132818095Y-87510952D01*
X132246666Y-88082380D01*
X132865714Y-88082380D01*
X127892380Y-87891904D02*
X126892380Y-87891904D01*
X127892380Y-87320476D02*
X127320952Y-87749047D01*
X126892380Y-87320476D02*
X127463809Y-87891904D01*
%TO.C,SW2*%
X147256666Y-82954761D02*
X147399523Y-83002380D01*
X147637619Y-83002380D01*
X147732857Y-82954761D01*
X147780476Y-82907142D01*
X147828095Y-82811904D01*
X147828095Y-82716666D01*
X147780476Y-82621428D01*
X147732857Y-82573809D01*
X147637619Y-82526190D01*
X147447142Y-82478571D01*
X147351904Y-82430952D01*
X147304285Y-82383333D01*
X147256666Y-82288095D01*
X147256666Y-82192857D01*
X147304285Y-82097619D01*
X147351904Y-82050000D01*
X147447142Y-82002380D01*
X147685238Y-82002380D01*
X147828095Y-82050000D01*
X148161428Y-82002380D02*
X148399523Y-83002380D01*
X148590000Y-82288095D01*
X148780476Y-83002380D01*
X149018571Y-82002380D01*
X149351904Y-82097619D02*
X149399523Y-82050000D01*
X149494761Y-82002380D01*
X149732857Y-82002380D01*
X149828095Y-82050000D01*
X149875714Y-82097619D01*
X149923333Y-82192857D01*
X149923333Y-82288095D01*
X149875714Y-82430952D01*
X149304285Y-83002380D01*
X149923333Y-83002380D01*
%TO.C,K1*%
X113561904Y-80462380D02*
X113561904Y-79462380D01*
X114133333Y-80462380D02*
X113704761Y-79890952D01*
X114133333Y-79462380D02*
X113561904Y-80033809D01*
X115085714Y-80462380D02*
X114514285Y-80462380D01*
X114800000Y-80462380D02*
X114800000Y-79462380D01*
X114704761Y-79605238D01*
X114609523Y-79700476D01*
X114514285Y-79748095D01*
%TO.C,D1*%
X138961904Y-88082380D02*
X138961904Y-87082380D01*
X139200000Y-87082380D01*
X139342857Y-87130000D01*
X139438095Y-87225238D01*
X139485714Y-87320476D01*
X139533333Y-87510952D01*
X139533333Y-87653809D01*
X139485714Y-87844285D01*
X139438095Y-87939523D01*
X139342857Y-88034761D01*
X139200000Y-88082380D01*
X138961904Y-88082380D01*
X140485714Y-88082380D02*
X139914285Y-88082380D01*
X140200000Y-88082380D02*
X140200000Y-87082380D01*
X140104761Y-87225238D01*
X140009523Y-87320476D01*
X139914285Y-87368095D01*
X138522380Y-77731904D02*
X137522380Y-77731904D01*
X138522380Y-77160476D02*
X137950952Y-77589047D01*
X137522380Y-77160476D02*
X138093809Y-77731904D01*
%TO.C,Q1*%
X138334761Y-91709736D02*
X138239523Y-91662117D01*
X138144285Y-91566878D01*
X138001428Y-91424021D01*
X137906190Y-91376402D01*
X137810952Y-91376402D01*
X137858571Y-91614497D02*
X137763333Y-91566878D01*
X137668095Y-91471640D01*
X137620476Y-91281164D01*
X137620476Y-90947831D01*
X137668095Y-90757355D01*
X137763333Y-90662117D01*
X137858571Y-90614497D01*
X138049047Y-90614497D01*
X138144285Y-90662117D01*
X138239523Y-90757355D01*
X138287142Y-90947831D01*
X138287142Y-91281164D01*
X138239523Y-91471640D01*
X138144285Y-91566878D01*
X138049047Y-91614497D01*
X137858571Y-91614497D01*
X139239523Y-91614497D02*
X138668095Y-91614497D01*
X138953809Y-91614497D02*
X138953809Y-90614497D01*
X138858571Y-90757355D01*
X138763333Y-90852593D01*
X138668095Y-90900212D01*
%TO.C,R1*%
X146602380Y-92996666D02*
X146126190Y-93330000D01*
X146602380Y-93568095D02*
X145602380Y-93568095D01*
X145602380Y-93187142D01*
X145650000Y-93091904D01*
X145697619Y-93044285D01*
X145792857Y-92996666D01*
X145935714Y-92996666D01*
X146030952Y-93044285D01*
X146078571Y-93091904D01*
X146126190Y-93187142D01*
X146126190Y-93568095D01*
X146602380Y-92044285D02*
X146602380Y-92615714D01*
X146602380Y-92330000D02*
X145602380Y-92330000D01*
X145745238Y-92425238D01*
X145840476Y-92520476D01*
X145888095Y-92615714D01*
%TO.C,C1*%
X134873333Y-101137142D02*
X134825714Y-101184761D01*
X134682857Y-101232380D01*
X134587619Y-101232380D01*
X134444761Y-101184761D01*
X134349523Y-101089523D01*
X134301904Y-100994285D01*
X134254285Y-100803809D01*
X134254285Y-100660952D01*
X134301904Y-100470476D01*
X134349523Y-100375238D01*
X134444761Y-100280000D01*
X134587619Y-100232380D01*
X134682857Y-100232380D01*
X134825714Y-100280000D01*
X134873333Y-100327619D01*
X135825714Y-101232380D02*
X135254285Y-101232380D01*
X135540000Y-101232380D02*
X135540000Y-100232380D01*
X135444761Y-100375238D01*
X135349523Y-100470476D01*
X135254285Y-100518095D01*
%TO.C,SW1*%
X147256666Y-104544761D02*
X147399523Y-104592380D01*
X147637619Y-104592380D01*
X147732857Y-104544761D01*
X147780476Y-104497142D01*
X147828095Y-104401904D01*
X147828095Y-104306666D01*
X147780476Y-104211428D01*
X147732857Y-104163809D01*
X147637619Y-104116190D01*
X147447142Y-104068571D01*
X147351904Y-104020952D01*
X147304285Y-103973333D01*
X147256666Y-103878095D01*
X147256666Y-103782857D01*
X147304285Y-103687619D01*
X147351904Y-103640000D01*
X147447142Y-103592380D01*
X147685238Y-103592380D01*
X147828095Y-103640000D01*
X148161428Y-103592380D02*
X148399523Y-104592380D01*
X148590000Y-103878095D01*
X148780476Y-104592380D01*
X149018571Y-103592380D01*
X149923333Y-104592380D02*
X149351904Y-104592380D01*
X149637619Y-104592380D02*
X149637619Y-103592380D01*
X149542380Y-103735238D01*
X149447142Y-103830476D01*
X149351904Y-103878095D01*
%TO.C,J1*%
X111426666Y-95972380D02*
X111426666Y-96686666D01*
X111379047Y-96829523D01*
X111283809Y-96924761D01*
X111140952Y-96972380D01*
X111045714Y-96972380D01*
X112426666Y-96972380D02*
X111855238Y-96972380D01*
X112140952Y-96972380D02*
X112140952Y-95972380D01*
X112045714Y-96115238D01*
X111950476Y-96210476D01*
X111855238Y-96258095D01*
%TO.C,J2*%
X153336666Y-84542380D02*
X153336666Y-85256666D01*
X153289047Y-85399523D01*
X153193809Y-85494761D01*
X153050952Y-85542380D01*
X152955714Y-85542380D01*
X153765238Y-84637619D02*
X153812857Y-84590000D01*
X153908095Y-84542380D01*
X154146190Y-84542380D01*
X154241428Y-84590000D01*
X154289047Y-84637619D01*
X154336666Y-84732857D01*
X154336666Y-84828095D01*
X154289047Y-84970952D01*
X153717619Y-85542380D01*
X154336666Y-85542380D01*
%TO.C,R4*%
X133182380Y-100496666D02*
X132706190Y-100830000D01*
X133182380Y-101068095D02*
X132182380Y-101068095D01*
X132182380Y-100687142D01*
X132230000Y-100591904D01*
X132277619Y-100544285D01*
X132372857Y-100496666D01*
X132515714Y-100496666D01*
X132610952Y-100544285D01*
X132658571Y-100591904D01*
X132706190Y-100687142D01*
X132706190Y-101068095D01*
X132515714Y-99639523D02*
X133182380Y-99639523D01*
X132134761Y-99877619D02*
X132849047Y-100115714D01*
X132849047Y-99496666D01*
%TO.C,Q2*%
X125634761Y-100877619D02*
X125539523Y-100830000D01*
X125444285Y-100734761D01*
X125301428Y-100591904D01*
X125206190Y-100544285D01*
X125110952Y-100544285D01*
X125158571Y-100782380D02*
X125063333Y-100734761D01*
X124968095Y-100639523D01*
X124920476Y-100449047D01*
X124920476Y-100115714D01*
X124968095Y-99925238D01*
X125063333Y-99830000D01*
X125158571Y-99782380D01*
X125349047Y-99782380D01*
X125444285Y-99830000D01*
X125539523Y-99925238D01*
X125587142Y-100115714D01*
X125587142Y-100449047D01*
X125539523Y-100639523D01*
X125444285Y-100734761D01*
X125349047Y-100782380D01*
X125158571Y-100782380D01*
X125968095Y-99877619D02*
X126015714Y-99830000D01*
X126110952Y-99782380D01*
X126349047Y-99782380D01*
X126444285Y-99830000D01*
X126491904Y-99877619D01*
X126539523Y-99972857D01*
X126539523Y-100068095D01*
X126491904Y-100210952D01*
X125920476Y-100782380D01*
X126539523Y-100782380D01*
%TO.C,R3*%
X126303333Y-92042380D02*
X125970000Y-91566190D01*
X125731904Y-92042380D02*
X125731904Y-91042380D01*
X126112857Y-91042380D01*
X126208095Y-91090000D01*
X126255714Y-91137619D01*
X126303333Y-91232857D01*
X126303333Y-91375714D01*
X126255714Y-91470952D01*
X126208095Y-91518571D01*
X126112857Y-91566190D01*
X125731904Y-91566190D01*
X126636666Y-91042380D02*
X127255714Y-91042380D01*
X126922380Y-91423333D01*
X127065238Y-91423333D01*
X127160476Y-91470952D01*
X127208095Y-91518571D01*
X127255714Y-91613809D01*
X127255714Y-91851904D01*
X127208095Y-91947142D01*
X127160476Y-91994761D01*
X127065238Y-92042380D01*
X126779523Y-92042380D01*
X126684285Y-91994761D01*
X126636666Y-91947142D01*
D11*
%TO.C,R2*%
X125110000Y-98710000D02*
X121270000Y-98710000D01*
X125110000Y-96870000D02*
X121270000Y-96870000D01*
%TO.C,D2*%
X128070000Y-79830000D02*
X128070000Y-85270000D01*
X128070000Y-85270000D02*
X131010000Y-85270000D01*
X131010000Y-79830000D02*
X128070000Y-79830000D01*
X131010000Y-85270000D02*
X131010000Y-79830000D01*
X128070000Y-84370000D02*
X131010000Y-84370000D01*
X128070000Y-84250000D02*
X131010000Y-84250000D01*
X129540000Y-78810000D02*
X129540000Y-79830000D01*
X129540000Y-86290000D02*
X129540000Y-85270000D01*
X128070000Y-84490000D02*
X131010000Y-84490000D01*
%TO.C,SW2*%
X151015000Y-81719999D02*
X151265000Y-81719999D01*
X157505000Y-74969999D02*
X154055000Y-74969999D01*
X151015000Y-82509999D02*
X151015000Y-81719999D01*
X151015000Y-75759999D02*
X151015000Y-74969999D01*
X157505000Y-82509999D02*
X157505000Y-74969999D01*
X154055000Y-82509999D02*
X157505000Y-82509999D01*
X151215000Y-74969999D02*
X151015000Y-74969999D01*
X151015000Y-75759999D02*
X151265000Y-75759999D01*
X151215000Y-82509999D02*
X151015000Y-82509999D01*
X153565000Y-76349999D02*
X153565000Y-81129999D01*
%TO.C,K1*%
X119290000Y-88500000D02*
X121790000Y-88500000D01*
X117290000Y-80700000D02*
X121290000Y-80700000D01*
X121790000Y-76500000D02*
X119290000Y-76500000D01*
X122690000Y-82500000D02*
X123490000Y-82500000D01*
X106940000Y-74750000D02*
X126740000Y-74750000D01*
X126740000Y-81350000D02*
X126740000Y-74750000D01*
X119290000Y-80700000D02*
X119290000Y-76500000D01*
X111190000Y-81050000D02*
X111190000Y-78550000D01*
X115890000Y-78900000D02*
X122690000Y-78900000D01*
X115890000Y-82500000D02*
X115890000Y-78900000D01*
X117290000Y-84300000D02*
X117290000Y-80700000D01*
X122690000Y-82500000D02*
X122690000Y-78900000D01*
X117290000Y-80700000D02*
X121290000Y-84300000D01*
X126740000Y-90350000D02*
X126740000Y-83750000D01*
X114390000Y-82500000D02*
X109790000Y-85000000D01*
X119290000Y-88500000D02*
X119290000Y-84300000D01*
X106940000Y-90350000D02*
X106940000Y-74750000D01*
X121290000Y-80700000D02*
X121290000Y-84300000D01*
X115890000Y-82500000D02*
X114390000Y-82500000D01*
X126740000Y-90350000D02*
X106940000Y-90350000D01*
X121290000Y-84300000D02*
X117290000Y-84300000D01*
%TO.C,D1*%
X134500000Y-85270000D02*
X137440000Y-85270000D01*
X137440000Y-80610000D02*
X134500000Y-80610000D01*
X135970000Y-86290000D02*
X135970000Y-85270000D01*
X137440000Y-79830000D02*
X134500000Y-79830000D01*
X137440000Y-85270000D02*
X137440000Y-79830000D01*
X134500000Y-79830000D02*
X134500000Y-85270000D01*
X137440000Y-80850000D02*
X134500000Y-80850000D01*
X135970000Y-78810000D02*
X135970000Y-79830000D01*
X137440000Y-80730000D02*
X134500000Y-80730000D01*
%TO.C,Q1*%
X136918648Y-94762117D02*
X136918648Y-91162117D01*
X132468647Y-92962117D02*
G75*
G03*
X136907126Y-94800595I2600001J0D01*
G01*
X136907126Y-91123639D02*
G75*
G03*
X132468648Y-92962117I-1838478J-1838478D01*
G01*
%TO.C,R1*%
X143310000Y-90910000D02*
X143310000Y-94750000D01*
X145150000Y-90910000D02*
X145150000Y-94750000D01*
%TO.C,C1*%
X136121000Y-104870000D02*
X136121000Y-105815000D01*
X135200000Y-101956000D02*
X135200000Y-106104000D01*
X136641000Y-102679000D02*
X136641000Y-103190000D01*
X136641000Y-104870000D02*
X136641000Y-105381000D01*
X136801000Y-102888000D02*
X136801000Y-103190000D01*
X135240000Y-104870000D02*
X135240000Y-106101000D01*
X135480000Y-104870000D02*
X135480000Y-106064000D01*
X136401000Y-102443000D02*
X136401000Y-103190000D01*
X136001000Y-104870000D02*
X136001000Y-105881000D01*
X135440000Y-104870000D02*
X135440000Y-106072000D01*
X136761000Y-104870000D02*
X136761000Y-105230000D01*
X135801000Y-102090000D02*
X135801000Y-103190000D01*
X132770199Y-102835000D02*
X133170199Y-102835000D01*
X135881000Y-102123000D02*
X135881000Y-103190000D01*
X136281000Y-102350000D02*
X136281000Y-103190000D01*
X135720000Y-104870000D02*
X135720000Y-105998000D01*
X135520000Y-104870000D02*
X135520000Y-106055000D01*
X136241000Y-102322000D02*
X136241000Y-103190000D01*
X135320000Y-104870000D02*
X135320000Y-106092000D01*
X136161000Y-104870000D02*
X136161000Y-105790000D01*
X135360000Y-101974000D02*
X135360000Y-103190000D01*
X135841000Y-102106000D02*
X135841000Y-103190000D01*
X136681000Y-102726000D02*
X136681000Y-103190000D01*
X136521000Y-102552000D02*
X136521000Y-103190000D01*
X135680000Y-104870000D02*
X135680000Y-106012000D01*
X135600000Y-104870000D02*
X135600000Y-106035000D01*
X136161000Y-102270000D02*
X136161000Y-103190000D01*
X136201000Y-102295000D02*
X136201000Y-103190000D01*
X135160000Y-101953000D02*
X135160000Y-106107000D01*
X136401000Y-104870000D02*
X136401000Y-105617000D01*
X135280000Y-101963000D02*
X135280000Y-103190000D01*
X135560000Y-104870000D02*
X135560000Y-106046000D01*
X136441000Y-104870000D02*
X136441000Y-105582000D01*
X135640000Y-102036000D02*
X135640000Y-103190000D01*
X136601000Y-104870000D02*
X136601000Y-105426000D01*
X135720000Y-102062000D02*
X135720000Y-103190000D01*
X136041000Y-104870000D02*
X136041000Y-105860000D01*
X136361000Y-104870000D02*
X136361000Y-105649000D01*
X135280000Y-104870000D02*
X135280000Y-106097000D01*
X136961000Y-103171000D02*
X136961000Y-104889000D01*
X136441000Y-102478000D02*
X136441000Y-103190000D01*
X135400000Y-104870000D02*
X135400000Y-106080000D01*
X135360000Y-104870000D02*
X135360000Y-106086000D01*
X135841000Y-104870000D02*
X135841000Y-105954000D01*
X135640000Y-104870000D02*
X135640000Y-106024000D01*
X135881000Y-104870000D02*
X135881000Y-105937000D01*
X135680000Y-102048000D02*
X135680000Y-103190000D01*
X135961000Y-104870000D02*
X135961000Y-105900000D01*
X136001000Y-102179000D02*
X136001000Y-103190000D01*
X137001000Y-103262000D02*
X137001000Y-104798000D01*
X136281000Y-104870000D02*
X136281000Y-105710000D01*
X137081000Y-103493000D02*
X137081000Y-104567000D01*
X135480000Y-101996000D02*
X135480000Y-103190000D01*
X136721000Y-104870000D02*
X136721000Y-105284000D01*
X135240000Y-101959000D02*
X135240000Y-103190000D01*
X135921000Y-102141000D02*
X135921000Y-103190000D01*
X135600000Y-102025000D02*
X135600000Y-103190000D01*
X136481000Y-104870000D02*
X136481000Y-105546000D01*
X135801000Y-104870000D02*
X135801000Y-105970000D01*
X135761000Y-102076000D02*
X135761000Y-103190000D01*
X136481000Y-102514000D02*
X136481000Y-103190000D01*
X135400000Y-101980000D02*
X135400000Y-103190000D01*
X136121000Y-102245000D02*
X136121000Y-103190000D01*
X136841000Y-102950000D02*
X136841000Y-103190000D01*
X136081000Y-102222000D02*
X136081000Y-103190000D01*
X136721000Y-102776000D02*
X136721000Y-103190000D01*
X136321000Y-104870000D02*
X136321000Y-105680000D01*
X136561000Y-104870000D02*
X136561000Y-105468000D01*
X136241000Y-104870000D02*
X136241000Y-105738000D01*
X135921000Y-104870000D02*
X135921000Y-105919000D01*
X135080000Y-101950000D02*
X135080000Y-106110000D01*
X135440000Y-101988000D02*
X135440000Y-103190000D01*
X135520000Y-102005000D02*
X135520000Y-103190000D01*
X136881000Y-103017000D02*
X136881000Y-105043000D01*
X135120000Y-101951000D02*
X135120000Y-106109000D01*
X135040000Y-101950000D02*
X135040000Y-106110000D01*
X136201000Y-104870000D02*
X136201000Y-105765000D01*
X136521000Y-104870000D02*
X136521000Y-105508000D01*
X135560000Y-102014000D02*
X135560000Y-103190000D01*
X135320000Y-101968000D02*
X135320000Y-103190000D01*
X136601000Y-102634000D02*
X136601000Y-103190000D01*
X136801000Y-104870000D02*
X136801000Y-105172000D01*
X136361000Y-102411000D02*
X136361000Y-103190000D01*
X135761000Y-104870000D02*
X135761000Y-105984000D01*
X136041000Y-102200000D02*
X136041000Y-103190000D01*
X136561000Y-102592000D02*
X136561000Y-103190000D01*
X137041000Y-103366000D02*
X137041000Y-104694000D01*
X136681000Y-104870000D02*
X136681000Y-105334000D01*
X135961000Y-102160000D02*
X135961000Y-103190000D01*
X136921000Y-103090000D02*
X136921000Y-104970000D01*
X137121000Y-103660000D02*
X137121000Y-104400000D01*
X136321000Y-102380000D02*
X136321000Y-103190000D01*
X136081000Y-104870000D02*
X136081000Y-105838000D01*
X132970199Y-102635000D02*
X132970199Y-103035000D01*
X136761000Y-102830000D02*
X136761000Y-103190000D01*
X136841000Y-104870000D02*
X136841000Y-105110000D01*
X137160000Y-104030000D02*
G75*
G03*
X137160000Y-104030000I-2120000J0D01*
G01*
%TO.C,SW1*%
X154055000Y-106639998D02*
X157505000Y-106639998D01*
X151015000Y-105849998D02*
X151265000Y-105849998D01*
X157505000Y-106639998D02*
X157505000Y-99099998D01*
X151215000Y-99099998D02*
X151015000Y-99099998D01*
X153565000Y-100479998D02*
X153565000Y-105259998D01*
X157505000Y-99099998D02*
X154055000Y-99099998D01*
X151215000Y-106639998D02*
X151015000Y-106639998D01*
X151015000Y-106639998D02*
X151015000Y-105849998D01*
X151015000Y-99889998D02*
X151265000Y-99889998D01*
X151015000Y-99889998D02*
X151015000Y-99099998D01*
%TO.C,J1*%
X106680000Y-105410000D02*
X116840000Y-105410000D01*
X116840000Y-97790000D02*
X106680000Y-97790000D01*
X116840000Y-104140000D02*
X106680000Y-104140000D01*
X116840000Y-105410000D02*
X116840000Y-97790000D01*
X106680000Y-97790000D02*
X106680000Y-105410000D01*
%TO.C,J2*%
X157480000Y-86360000D02*
X149860000Y-86360000D01*
X157480000Y-96520000D02*
X157480000Y-86360000D01*
X151130000Y-96520000D02*
X151130000Y-86360000D01*
X149860000Y-96520000D02*
X157480000Y-96520000D01*
X149860000Y-86360000D02*
X149860000Y-96520000D01*
%TO.C,R4*%
X131730000Y-98410000D02*
X131730000Y-102250000D01*
X129890000Y-98410000D02*
X129890000Y-102250000D01*
%TO.C,Q2*%
X121340000Y-101070000D02*
X121340000Y-104670000D01*
X121351522Y-104708478D02*
G75*
G03*
X125790000Y-102870000I1838478J1838478D01*
G01*
X125790001Y-102870000D02*
G75*
G03*
X121351522Y-101031522I-2600001J0D01*
G01*
%TO.C,R3*%
X124550000Y-92590000D02*
X128390000Y-92590000D01*
X124550000Y-94430000D02*
X128390000Y-94430000D01*
%TD*%
M02*
