%TF.GenerationSoftware,KiCad,Pcbnew,6.0.11+dfsg-1*%
%TF.CreationDate,2023-09-10T04:50:11+01:00*%
%TF.ProjectId,latch,6c617463-682e-46b6-9963-61645f706362,rev?*%
%TF.SameCoordinates,Original*%
%TF.FileFunction,Copper,L2,Bot*%
%TF.FilePolarity,Positive*%
%FSLAX46Y46*%
G04 Gerber Fmt 4.6, Leading zero omitted, Abs format (unit mm)*
G04 Created by KiCad (PCBNEW 6.0.11+dfsg-1) date 2023-09-10 04:50:11*
%MOMM*%
%LPD*%
G01*
G04 APERTURE LIST*
%TA.AperFunction,ComponentPad*%
%ADD10C,1.400000*%
%TD*%
%TA.AperFunction,ComponentPad*%
%ADD11O,1.400000X1.400000*%
%TD*%
%TA.AperFunction,ComponentPad*%
%ADD12R,2.200000X2.200000*%
%TD*%
%TA.AperFunction,ComponentPad*%
%ADD13O,2.200000X2.200000*%
%TD*%
%TA.AperFunction,ComponentPad*%
%ADD14C,2.400000*%
%TD*%
%TA.AperFunction,ComponentPad*%
%ADD15C,1.700000*%
%TD*%
%TA.AperFunction,ComponentPad*%
%ADD16C,3.000000*%
%TD*%
%TA.AperFunction,ComponentPad*%
%ADD17C,2.500000*%
%TD*%
%TA.AperFunction,ComponentPad*%
%ADD18R,1.500000X1.050000*%
%TD*%
%TA.AperFunction,ComponentPad*%
%ADD19O,1.500000X1.050000*%
%TD*%
%TA.AperFunction,ComponentPad*%
%ADD20R,1.200000X1.200000*%
%TD*%
%TA.AperFunction,ComponentPad*%
%ADD21C,1.200000*%
%TD*%
%TA.AperFunction,ComponentPad*%
%ADD22R,3.000000X3.000000*%
%TD*%
%TA.AperFunction,Conductor*%
%ADD23C,0.800000*%
%TD*%
%TA.AperFunction,Conductor*%
%ADD24C,0.600000*%
%TD*%
%TA.AperFunction,Conductor*%
%ADD25C,1.700000*%
%TD*%
G04 APERTURE END LIST*
D10*
%TO.P,R2,1*%
%TO.N,Net-(C1-Pad2)*%
X125730000Y-97790000D03*
D11*
%TO.P,R2,2*%
%TO.N,+9V*%
X120650000Y-97790000D03*
%TD*%
D12*
%TO.P,D2,1,K*%
%TO.N,Net-(D2-Pad1)*%
X129540000Y-87630000D03*
D13*
%TO.P,D2,2,A*%
%TO.N,GND*%
X129540000Y-77470000D03*
%TD*%
D14*
%TO.P,SW2,*%
%TO.N,*%
X152635000Y-82239999D03*
X152635000Y-75239999D03*
D15*
%TO.P,SW2,1,A*%
%TO.N,GND*%
X155135000Y-76489999D03*
%TO.P,SW2,2,B*%
%TO.N,Net-(Q1-Pad2)*%
X155135000Y-80989999D03*
%TD*%
D16*
%TO.P,K1,1*%
%TO.N,Net-(J1-Pad2)*%
X125340000Y-82550000D03*
D17*
%TO.P,K1,2*%
%TO.N,GND*%
X123390000Y-76500000D03*
D16*
%TO.P,K1,3*%
%TO.N,Net-(J1-Pad1)*%
X111190000Y-76500000D03*
D17*
%TO.P,K1,5*%
%TO.N,Net-(D2-Pad1)*%
X123390000Y-88500000D03*
%TD*%
D12*
%TO.P,D1,1,K*%
%TO.N,GND*%
X135970000Y-77470000D03*
D13*
%TO.P,D1,2,A*%
%TO.N,Net-(D1-Pad2)*%
X135970000Y-87630000D03*
%TD*%
D18*
%TO.P,Q1,1,C*%
%TO.N,Net-(C1-Pad2)*%
X135068648Y-94232117D03*
D19*
%TO.P,Q1,2,B*%
%TO.N,Net-(Q1-Pad2)*%
X135068648Y-92962117D03*
%TO.P,Q1,3,E*%
%TO.N,Net-(D1-Pad2)*%
X135068648Y-91692117D03*
%TD*%
D10*
%TO.P,R1,1*%
%TO.N,Net-(Q1-Pad2)*%
X144230000Y-90290000D03*
D11*
%TO.P,R1,2*%
%TO.N,Net-(R1-Pad2)*%
X144230000Y-95370000D03*
%TD*%
D20*
%TO.P,C1,1*%
%TO.N,+9V*%
X134040000Y-104030000D03*
D21*
%TO.P,C1,2*%
%TO.N,Net-(C1-Pad2)*%
X136040000Y-104030000D03*
%TD*%
D14*
%TO.P,SW1,*%
%TO.N,*%
X152635000Y-99369998D03*
X152635000Y-106369998D03*
D15*
%TO.P,SW1,1,A*%
%TO.N,Net-(R1-Pad2)*%
X155135000Y-100619998D03*
%TO.P,SW1,2,B*%
%TO.N,+9V*%
X155135000Y-105119998D03*
%TD*%
D22*
%TO.P,J1,1,Pin_1*%
%TO.N,Net-(J1-Pad1)*%
X109220000Y-101600000D03*
D16*
%TO.P,J1,2,Pin_2*%
%TO.N,Net-(J1-Pad2)*%
X114300000Y-101600000D03*
%TD*%
D22*
%TO.P,J2,1,Pin_1*%
%TO.N,GND*%
X153670000Y-88900000D03*
D16*
%TO.P,J2,2,Pin_2*%
%TO.N,+9V*%
X153670000Y-93980000D03*
%TD*%
D10*
%TO.P,R4,1*%
%TO.N,Net-(C1-Pad2)*%
X130810000Y-97790000D03*
D11*
%TO.P,R4,2*%
%TO.N,Net-(Q2-Pad2)*%
X130810000Y-102870000D03*
%TD*%
D18*
%TO.P,Q2,1,C*%
%TO.N,Net-(D2-Pad1)*%
X123190000Y-101600000D03*
D19*
%TO.P,Q2,2,B*%
%TO.N,Net-(Q2-Pad2)*%
X123190000Y-102870000D03*
%TO.P,Q2,3,E*%
%TO.N,+9V*%
X123190000Y-104140000D03*
%TD*%
D10*
%TO.P,R3,1*%
%TO.N,Net-(D2-Pad1)*%
X123930000Y-93510000D03*
D11*
%TO.P,R3,2*%
%TO.N,Net-(Q1-Pad2)*%
X129010000Y-93510000D03*
%TD*%
D23*
%TO.N,+9V*%
X157480000Y-105410000D02*
X155425002Y-105410000D01*
X155425002Y-105410000D02*
X155135000Y-105119998D01*
D24*
X133350000Y-106680000D02*
X134040000Y-106680000D01*
X120650000Y-97790000D02*
X120650000Y-104140000D01*
X123190000Y-104140000D02*
X123190000Y-106680000D01*
X123190000Y-106680000D02*
X133350000Y-106680000D01*
D23*
X157480000Y-93980000D02*
X157480000Y-105410000D01*
D24*
X120650000Y-104140000D02*
X123190000Y-104140000D01*
D23*
X153670000Y-93980000D02*
X157480000Y-93980000D01*
D24*
X148590000Y-106680000D02*
X133350000Y-106680000D01*
X151130000Y-104140000D02*
X148590000Y-106680000D01*
X154155002Y-104140000D02*
X155135000Y-105119998D01*
X134040000Y-106680000D02*
X134040000Y-104030000D01*
X151130000Y-104140000D02*
X154155002Y-104140000D01*
%TO.N,Net-(C1-Pad2)*%
X125730000Y-97790000D02*
X130810000Y-97790000D01*
X134620000Y-97790000D02*
X130810000Y-97790000D01*
X135068648Y-94232117D02*
X135068648Y-97341352D01*
X135890000Y-97790000D02*
X136040000Y-97940000D01*
X134620000Y-97790000D02*
X135890000Y-97790000D01*
X135068648Y-97341352D02*
X134620000Y-97790000D01*
X136040000Y-97940000D02*
X136040000Y-104030000D01*
D23*
%TO.N,GND*%
X149860000Y-77470000D02*
X154154999Y-77470000D01*
X135970000Y-74930000D02*
X129540000Y-74930000D01*
X154154999Y-77470000D02*
X155135000Y-76489999D01*
X155424999Y-76200000D02*
X157480000Y-76200000D01*
X157480000Y-76200000D02*
X157480000Y-88900000D01*
X135970000Y-74930000D02*
X147320000Y-74930000D01*
X129540000Y-77470000D02*
X129540000Y-74930000D01*
X155135000Y-76489999D02*
X155424999Y-76200000D01*
X135970000Y-77470000D02*
X135970000Y-74930000D01*
X157480000Y-88900000D02*
X153670000Y-88900000D01*
X147320000Y-74930000D02*
X149860000Y-77470000D01*
X129540000Y-74930000D02*
X124460000Y-74930000D01*
X123390000Y-76000000D02*
X123390000Y-76500000D01*
X124460000Y-74930000D02*
X123390000Y-76000000D01*
D24*
%TO.N,Net-(D1-Pad2)*%
X135970000Y-87630000D02*
X135970000Y-90790765D01*
X135970000Y-90790765D02*
X135068648Y-91692117D01*
%TO.N,Net-(D2-Pad1)*%
X123390000Y-92970000D02*
X123930000Y-93510000D01*
X123190000Y-96520000D02*
X123190000Y-101600000D01*
D23*
X128670000Y-88500000D02*
X129540000Y-87630000D01*
X129540000Y-87630000D02*
X124260000Y-87630000D01*
D24*
X123930000Y-95780000D02*
X123190000Y-96520000D01*
X123930000Y-93510000D02*
X123930000Y-95780000D01*
D23*
X124260000Y-87630000D02*
X123390000Y-88500000D01*
D24*
X123390000Y-88500000D02*
X123390000Y-92970000D01*
D25*
%TO.N,Net-(J1-Pad1)*%
X109220000Y-77470000D02*
X109220000Y-101600000D01*
X110190000Y-76500000D02*
X109220000Y-77470000D01*
X111190000Y-76500000D02*
X110190000Y-76500000D01*
%TO.N,Net-(J1-Pad2)*%
X125340000Y-82550000D02*
X116840000Y-82550000D01*
X116840000Y-82550000D02*
X114300000Y-85090000D01*
X114300000Y-85090000D02*
X114300000Y-101600000D01*
D24*
%TO.N,Net-(Q1-Pad2)*%
X154285000Y-80139999D02*
X155135000Y-80989999D01*
X129557883Y-92962117D02*
X129010000Y-93510000D01*
X139447883Y-92962117D02*
X142120000Y-90290000D01*
X135068648Y-92962117D02*
X129557883Y-92962117D01*
X135068648Y-92962117D02*
X139447883Y-92962117D01*
X142120000Y-90290000D02*
X144230000Y-90290000D01*
X144230000Y-83100000D02*
X147190001Y-80139999D01*
X147190001Y-80139999D02*
X154285000Y-80139999D01*
X144230000Y-90290000D02*
X144230000Y-83100000D01*
%TO.N,Net-(Q2-Pad2)*%
X123190000Y-102870000D02*
X130810000Y-102870000D01*
%TO.N,Net-(R1-Pad2)*%
X146050000Y-101600000D02*
X154154998Y-101600000D01*
X154154998Y-101600000D02*
X155135000Y-100619998D01*
X144230000Y-95370000D02*
X144230000Y-99780000D01*
X144230000Y-99780000D02*
X146050000Y-101600000D01*
%TD*%
M02*
